<svg xmlns="http://www.w3.org/2000/svg" width="865.76" height="682.89" viewBox="0 0 865.76 682.89"><path d="M619.34,107.62A342.49,342.49,0,0,0,402.25,30.45c-189.93,0-343.89,154-343.89,343.89a345.89,345.89,0,0,0,6.79,68.36Z" fill="#3db2ff"/><path d="M641.62,95,80,452A343.83,343.83,0,0,0,162.3,588L751,365.1q.46-9,.47-18.15A343,343,0,0,0,641.62,95Z" fill="#3db2ff"/><path d="M237.22,563.6a342.63,342.63,0,0,0,230.67,88.84c171.2,0,313.18-125.1,339.51-288.88C679.87,408,352.88,522.2,237.22,563.6Z" fill="#3db2ff"/><g opacity="0.8" style="isolation:isolate"><path d="M619.34,107.62A342.49,342.49,0,0,0,402.25,30.45c-189.93,0-343.89,154-343.89,343.89a345.89,345.89,0,0,0,6.79,68.36Z" fill="#fff"/><path d="M641.62,95,80,452A343.83,343.83,0,0,0,162.3,588L751,365.1q.46-9,.47-18.15A343,343,0,0,0,641.62,95Z" fill="#fff"/><path d="M237.22,563.6a342.63,342.63,0,0,0,230.67,88.84c171.2,0,313.18-125.1,339.51-288.88C679.87,408,352.88,522.2,237.22,563.6Z" fill="#fff"/></g><path d="M232.4,228.09l-1-.19c1.19-6.08,7.08-17.35,33.19-24.53a64.88,64.88,0,0,1,13.21-2.2c13.37-.84,36-.59,37.29,10.5l-1,.12c-1.24-10.66-25.76-10.28-36.24-9.62a63.71,63.71,0,0,0-13,2.16C239.29,211.37,233.55,222.24,232.4,228.09Z" fill="#1e3163"/><path d="M235.3,227.32a12.54,12.54,0,1,0,12.54,12.54A12.55,12.55,0,0,0,235.3,227.32Zm0,17.63a5.09,5.09,0,1,1,5.09-5.09A5.08,5.08,0,0,1,235.3,245Z" fill="#ffc931"/><path d="M142.09,607.27h465a0,0,0,0,1,0,0v.83A16.12,16.12,0,0,1,591,624.22H158.21a16.12,16.12,0,0,1-16.12-16.12v-.83A0,0,0,0,1,142.09,607.27Z" fill="#1e3163"/><path d="M692.77,415.46c-7.07,20.71-22.14,39-50.74,49.12,0,0-65.08,29.83-100.66,14.57l-2.09-12.87L521,353.41,553.57,247l2.71-29.15S639.66,207,681.69,304.6c0,0,.9,2,2.29,5.65a230.18,230.18,0,0,1,8.9,29,184.21,184.21,0,0,1,5.18,38.57C698.29,390.41,696.9,403.35,692.77,415.46Z" fill="#ffc931"/><path d="M686.42,332.4C626.77,355.43,595.6,289,595.6,289l-39.32-71.18S639.66,207,681.69,304.6c0,0,.9,2,2.29,5.65-46.31,16.47-79.13-28.77-79.57-29.37C630,342.08,685.56,332.55,686.42,332.4Z" fill="#fff" opacity="0.2"/><path d="M698.06,377.81c-17.67,5.83-82,21.36-127.55-42.71l7.12-9.82s67,40.7,115.25,14A184.21,184.21,0,0,1,698.06,377.81Z" fill="#fff" opacity="0.2"/><path d="M605.48,399.29l34.72-78.92,51.12,69.87Zm34.94-76.93-33.33,75.76,82.39-8.69Z" fill="#3db2ff"/><path d="M692.77,415.46c-7.07,20.71-22.14,39-50.74,49.12,0,0-65.08,29.83-100.66,14.57L539,466.22l.28.06C545.06,467.45,637.29,484.78,692.77,415.46Z" fill="#ffbc00"/><path d="M519.18,128.14s7.27-3.86,31-5.21c0,0-1.53,7.89-9,11.32a30.27,30.27,0,0,0-8.82,6.16l-5.23,5.23L517,137.16Z" fill="#1e3163"/><path d="M519.18,128.14s7.27-3.86,31-5.21c0,0-1.53,7.89-9,11.32a30.27,30.27,0,0,0-8.82,6.16l-5.23,5.23L517,137.16Z" opacity="0.2"/><path d="M519.71,160.53s12.84,4.09,32.5,2.05a65.26,65.26,0,0,0-30.64-21.7s-.71,2.89-8.34,3.06c0,0-1,4.07-9.15,4.75Z" fill="#1e3163"/><path d="M469.51,195.8l2.37,10.51s21.36,4.06,35.25-14.24l-8.81-18-5.76-6.1Z" fill="#f1c4b3"/><path d="M469.51,195.8l2.37,10.51s13.87-2.76,17.27-24.09Z" fill="#f19e9d"/><path d="M593.56,300.87c-22.37,75.25-44.4,88.13-44.4,88.13L360,283.25l20-24.07c26.78-34.91,59.28-32.28,70.6-33.59a32.78,32.78,0,0,0,10.92-3.18,21.63,21.63,0,0,0,7.84-6.14c3.89-5.14,2.49-10,2.49-10,24.07,3.05,35.25-14.24,35.25-14.24C517.3,208,535.6,211.73,535.6,211.73c12.2,3.05,20.68,6.1,20.68,6.1C620.68,235.12,593.56,300.87,593.56,300.87Z" fill="#3db2ff"/><path d="M503.74,217.15s-13.88,15.94-42.19,5.26a21.63,21.63,0,0,0,7.84-6.14A78.54,78.54,0,0,0,503.74,217.15Z" opacity="0.2"/><path d="M478.66,232.07s26.44,2.37,37.62-10.17C516.28,221.9,507.13,246.64,478.66,232.07Z" opacity="0.2"/><rect x="202.76" y="283.25" width="347.07" height="240.99" rx="13.58" fill="#1e3163"/><rect x="214.67" y="295.45" width="323.64" height="218.62" rx="10.25" fill="#e6e6e6" stroke="#e6e6e6" stroke-miterlimit="10"/><path d="M538.31,305.7v6.7H214.67v-6.7a10.25,10.25,0,0,1,10.25-10.25H528.06A10.24,10.24,0,0,1,538.31,305.7Z" fill="#fff"/><g opacity="0.2"><path d="M410.2,290.53H347.49a1.19,1.19,0,0,1,0-2.37H410.2a1.19,1.19,0,0,1,0,2.37Z"/></g><circle cx="496.46" cy="303.92" r="3.56" fill="#ffc931"/><circle cx="508.66" cy="303.92" r="3.56" fill="#ffc931"/><circle cx="520.52" cy="303.92" r="3.56" fill="#ffc931"/><rect x="234.62" y="311.72" width="278.61" height="185.74" fill="#3db2ff" opacity="0.1"/><path d="M606.22,607.26a2.58,2.58,0,0,1-2.09,4.08l-460-.34a2.41,2.41,0,0,1-2-3.82l56.1-77.93a12.86,12.86,0,0,1,10.45-5.36l331.46-.33a11.34,11.34,0,0,1,9.35,4.92Z" fill="#1e3163"/><path d="M606.22,607.26a2.58,2.58,0,0,1-2.09,4.08l-460-.34a2.41,2.41,0,0,1-2-3.82l56.1-77.93a12.86,12.86,0,0,1,10.45-5.36l331.46-.33a11.34,11.34,0,0,1,9.35,4.92Z" opacity="0.2"/><path d="M318.47,180.31l21.38-83.53,61.83,60.59-.84.23Zm21.92-81.6-20.52,80.17,79.87-22Z" fill="#3db2ff"/><path d="M247,245c-6.14,0-11.9-2.24-14.79-9.28l.92-.38c4.33,10.53,15.67,9.55,24.42,6.88a55.51,55.51,0,0,0,15.29-7.55,71.25,71.25,0,0,1,31.58-11.57l.07,1a70,70,0,0,0-31.08,11.39,56.56,56.56,0,0,1-15.57,7.69A38,38,0,0,1,247,245Z" fill="#1e3163"/><rect x="226.61" y="247.73" width="5.93" height="41.76" transform="translate(50.21 -35.83) rotate(10.01)" fill="#ffc931"/><rect x="226.53" y="280.74" width="13.7" height="5.08" transform="translate(54.38 -37.14) rotate(10.29)" fill="#ffc931"/><rect x="227.57" y="273.4" width="11.19" height="5.08" transform="translate(53.06 -37.22) rotate(10.29)" fill="#ffc931"/><path d="M376.6,271.2c-14.05-1-19.35-14.42-19.41-14.55a52.31,52.31,0,0,0-12.07-19.13l.68-.74a53.52,53.52,0,0,1,12.33,19.52c.05.12,5.14,12.93,18.55,13.91Z" fill="#1e3163"/><path d="M373.15,274.25c-15.68-3.07-21.33-17.8-21.38-17.94-3.67-8.67-8.4-17.14-8.44-17.22l.87-.49c.05.09,4.8,8.6,8.5,17.34.06.16,5.52,14.37,20.65,17.33Z" fill="#1e3163"/><path d="M444.82,113.45h47.28a0,0,0,0,1,0,0v50.61a36.76,36.76,0,0,1-36.76,36.76h-2.88a19.33,19.33,0,0,1-19.33-19.33V125.15a11.7,11.7,0,0,1,11.7-11.7Z" transform="translate(-23.81 111.39) rotate(-13.39)" fill="#f1c4b3"/><ellipse cx="505.44" cy="163.09" rx="14.91" ry="15.76" fill="#f1c4b3"/><path d="M513.23,143.94c-1,4.41-9.15,4.75-9.15,4.75a28.81,28.81,0,0,0-11.52,7.63C471.89,174.13,445.11,167,445.11,167c-21,17.63-15.58-21.57-15.58-21.57,28.63-15.2,68.79-9.95,68.79-9.95-13.73-9.66-28-9.45-43.22-8.31a114.23,114.23,0,0,0-17.75,2.59h0c-6.41,1.59-10.54,3.09-10.63,3.12h0c-3.85-5,.46-9.95.46-9.95,5.76-5.42.34-10.51.34-10.51-3.05-3.39,0-5.76,0-5.76.36-.33.72-.65,1.09-1a60.12,60.12,0,0,1,6.9-5.19A72.94,72.94,0,0,1,469.8,89.44c1.29-.07,2.57-.19,3.85-.38a35.45,35.45,0,0,1,18.67,2.26,39.77,39.77,0,0,1,13.46,8.9c14.1,9,12.79,13.77,11.71,15.35a8.67,8.67,0,0,0-1.38,3,12.87,12.87,0,0,0-.27,1.91,5.57,5.57,0,0,0,1.29,4c4.06,4.82,4.92,13.37,4.92,13.37C522.38,146,513.23,143.94,513.23,143.94Z" fill="#1e3163"/><path d="M498.32,135.47c-34.57-3.39-58.9,5.64-58.9,5.64a6.47,6.47,0,0,1-7.19-5c-.68,3,.36,7.86.36,7.86l-3.06,1.41a66.09,66.09,0,0,0-.56,9.87c-15.8-9.68-2.29-22.41-2.29-22.41s15.43-6.48,40-6.86c0,0,14.58-.74,27,6.39Z" fill="#51261e"/><path d="M426.68,132.88a19,19,0,0,0,2.74,13.92l-.45,8.49S413.34,147.23,426.68,132.88Z" opacity="0.2"/><path d="M432.23,136.15s-1.06-3.55.82-5.16c0,0,1.85,8.47,9.49,9l-3.86,1.4S433.24,140.89,432.23,136.15Z" opacity="0.2"/><path d="M429.53,145.42a74.23,74.23,0,0,1,12.7,10.5,4,4,0,0,0,2.83,1.37c1.23,0,2.81-.48,4.43-2.54a27.05,27.05,0,0,1,2.74-3c4.46-4.12,15.9-13,31-12.46a5.82,5.82,0,0,1,5.54,6.64,19.67,19.67,0,0,1-1.31,4.47A46.86,46.86,0,0,1,475.4,165.8s-11.82,5.43-30.29,1.19c0,0-10.17,9.74-14.24.8C430.87,167.79,427.5,163.17,429.53,145.42Z" fill="#3db2ff"/><path d="M454.83,126.62l.21,0s-9.17,1.19-17.69,3.08h0a64.21,64.21,0,0,0-10.62,3.12h0c-3.85-5,.46-9.95.46-9.95,5.76-5.42.34-10.51.34-10.51-3.05-3.39,0-5.76,0-5.76.36-.33.72-.65,1.09-1,0,.47.47,8.58,8.91,7.15a14.09,14.09,0,0,0,3.78-1.24,27.35,27.35,0,0,1,15.37-2.24s-18.3,5.08-21.35,13.22c0,0-3.39,5.08,3.39,4.74C438.67,127.33,448.81,125.05,454.83,126.62Z" opacity="0.2"/><path d="M492.32,91.32c-2.25,11.4-17.39,7.54-17.39,7.54-17.28-2-39.51,1.75-39.51,1.75l.05-.1a73,73,0,0,1,34.32-11.07c1.3-.07,2.59-.19,3.87-.38A35.43,35.43,0,0,1,492.32,91.32Z" opacity="0.2"/><path d="M458.32,113.78s23.73-5.43,39.32,4.74C497.64,118.52,487.47,99.2,458.32,113.78Z" opacity="0.2"/><path d="M479,147s-29.83,2.71-22,12.54C457,159.53,469.17,171.06,479,147Z" fill="#fff"/><path d="M433.24,153.43s0,9.22,4.49,10.57a3.77,3.77,0,0,0,3.87-1.2C443.39,160.77,445.31,156.45,433.24,153.43Z" fill="#fff"/><polygon points="598.71 395.68 682.67 386.68 632.31 317.35 598.71 395.68" fill="#fff"/><polygon points="603.8 391.54 676.4 383.49 633.26 324.59 603.8 391.54" fill="#3db2ff"/><path d="M631.78,367.72l-2.35-17.11a2.93,2.93,0,0,1,2.85-3.32l1.59,0a2.91,2.91,0,0,1,3,2.79l.76,17.13a2.93,2.93,0,0,1-2.79,3.05h0A2.92,2.92,0,0,1,631.78,367.72Z" fill="none" stroke="#fff" stroke-miterlimit="10"/><circle cx="635.74" cy="376.45" r="4.14" fill="none" stroke="#fff" stroke-miterlimit="10"/><path d="M294.68,267.58a206.88,206.88,0,0,0,1.29-45l2.71-10.17s31.19-9.49,39.66,3.73l8.47,22.71s-1.35,4.4-9.15-1l-1.69,3-.34,5.08L325.46,260.2l-.44,9S309,278.34,294.68,267.58Z" fill="#f19e9d"/><path d="M300.72,224.27s-7.48-2.89-6-8.89a7.33,7.33,0,0,1,3.77-4.63l19.12-9.87s7.12-2.71,10.17,1.7l6.1,5.57a5,5,0,0,1,1.62,4.11c-.26,3.05-1.2,7.43-4.67,4.89l-7.45-5.76-6.1,5.42,10.5,1.36s6.35-.58,7.6,4.13a1.24,1.24,0,0,1-1,1.52L322,226.21a.27.27,0,0,0,0,.53l10.32.43A7.75,7.75,0,0,1,339.6,233a8.22,8.22,0,0,1-.72,5.74l-1.22-.93-1.69,3h-12.2a70.52,70.52,0,0,1,11.29,3.85,3,3,0,0,1,1.09,4.41L329,259.37a2.41,2.41,0,0,1-3.57.44c-1.29-1.16-2.34-3.95-1.32-10.46,0,0-7.79.34-6.77-10.17,0,0,0-3.05-5.77-4.74,0,0-5.76.68-7.45-6.78A4.22,4.22,0,0,0,300.72,224.27Z" fill="#f1c4b3"/><path d="M290.55,263.25v20h44.74L330.54,266S309.19,283.25,290.55,263.25Z" fill="#3db2ff"/><polygon points="311.21 177.85 392.57 155.27 331.58 95.08 311.21 177.85" fill="#fff"/><polygon points="315.54 172.93 385.86 153.15 333.69 102.07 315.54 172.93" fill="#3db2ff"/><path d="M339.26,144.86l-5.1-16.49a2.93,2.93,0,0,1,2.27-3.74l1.56-.28a2.91,2.91,0,0,1,3.38,2.27l3.54,16.78a2.91,2.91,0,0,1-2.25,3.46h0A2.93,2.93,0,0,1,339.26,144.86Z" fill="none" stroke="#fff" stroke-miterlimit="10"/><circle cx="344.6" cy="152.84" r="4.14" fill="none" stroke="#fff" stroke-miterlimit="10"/><path d="M344.33,421.86H333.11v14.47H317.57V421.86H280.49V411.13L313,367.53h16.71L299.58,409h18.57V396.07h15V409h11.22Z" fill="#1e3163"/><path d="M349.05,401.9c0-22.74,12.58-35.68,29.51-35.68s29.51,12.88,29.51,35.68-12.48,35.68-29.51,35.68S349.05,424.61,349.05,401.9Zm43,0c0-15.64-5.51-22.14-13.48-22.14s-13.38,6.5-13.38,22.14S370.69,424,378.56,424,392,417.58,392,401.9Z" fill="#1e3163"/><path d="M441.81,367.45v68.88H426V380.25H412.1v-12.8Z" fill="#1e3163"/><path d="M349.86,346.22v3H332.58V325.41h16.8v2.95H336v7.32h11.89v2.89H336v7.65Z" fill="#1e3163"/><path d="M364.61,330.9v3.17a4.82,4.82,0,0,0-.76,0c-3.48,0-5.66,2.14-5.66,6.09v9h-3.28v-18h3.14v3A6.86,6.86,0,0,1,364.61,330.9Z" fill="#1e3163"/><path d="M378.34,330.9v3.17a4.7,4.7,0,0,0-.75,0c-3.51,0-5.69,2.14-5.69,6.09v9h-3.27v-18h3.13v3A6.9,6.9,0,0,1,378.34,330.9Z" fill="#1e3163"/><path d="M380.52,340.1a9.38,9.38,0,1,1,9.54,9.21h-.14a9,9,0,0,1-9.39-8.55C380.52,340.54,380.52,340.32,380.52,340.1Zm15.44,0a6.09,6.09,0,1,0-12.15-.7c0,.23,0,.47,0,.7a6.08,6.08,0,0,0,12.15.69A4,4,0,0,0,396,340.1Z" fill="#1e3163"/><path d="M413.51,330.9v3.17a4.57,4.57,0,0,0-.74,0c-3.51,0-5.69,2.14-5.69,6.09v9h-3.27v-18h3.13v3A6.91,6.91,0,0,1,413.51,330.9Z" fill="#1e3163"/><path d="M279,464.33V453.75h2.66v10.46c0,4.13,2,6,5.23,6s5.27-1.86,5.27-6V453.75h2.58v10.58c0,5.4-3,8.25-7.93,8.25S279,469.73,279,464.33Z" fill="#1e3163"/><path d="M313.17,464.25v8.11h-2.55v-7.83c0-2.75-1.39-4.1-3.81-4.1a4.16,4.16,0,0,0-4.54,3.75,4.51,4.51,0,0,0,0,1v7.25h-2.5V458.31h2.5v2.12a6.11,6.11,0,0,1,5.09-2.26,5.45,5.45,0,0,1,5.82,5.06A5.77,5.77,0,0,1,313.17,464.25Z" fill="#1e3163"/><path d="M329.07,463.86v8.5h-2.42V470.5a5.25,5.25,0,0,1-4.64,2c-3.19,0-5.21-1.7-5.21-4.14s1.47-4.13,5.67-4.13h4v-.51c0-2.14-1.25-3.41-3.78-3.41a7.13,7.13,0,0,0-4.46,1.53l-1.07-2a9.43,9.43,0,0,1,5.82-1.8C326.89,458.13,329.07,460,329.07,463.86Zm-2.56,4.2v-2h-4c-2.52,0-3.23,1-3.23,2.18s1.17,2.3,3.11,2.3A4.11,4.11,0,0,0,326.51,468.06Z" fill="#1e3163"/><path d="M346.93,458.27v14.09h-2.42v-2.12a5.8,5.8,0,0,1-4.8,2.28,5.55,5.55,0,0,1-6.07-5,5.08,5.08,0,0,1,0-1.17v-8.11h2.55v7.81c0,2.77,1.39,4.16,3.81,4.16a4.17,4.17,0,0,0,4.39-3.92,5.09,5.09,0,0,0,0-.78v-7.27Z" fill="#1e3163"/><path d="M359.77,471.53a4.78,4.78,0,0,1-3.09,1,4,4,0,0,1-4.46-3.4,4.35,4.35,0,0,1,0-1v-7.73h-2.36v-2.1h2.4v-3h2.56v3.09h4v2.1h-4v7.63a2,2,0,0,0,1.54,2.34,2.09,2.09,0,0,0,.66,0,3.17,3.17,0,0,0,2-.66Z" fill="#1e3163"/><path d="M376.16,464.25v8.11h-2.51v-7.83c0-2.75-1.39-4.1-3.81-4.1a4.17,4.17,0,0,0-4.46,4.68v7.25h-2.56V452.54h2.56v7.63a6.14,6.14,0,0,1,5-2.12,5.44,5.44,0,0,1,5.84,5A5.16,5.16,0,0,1,376.16,464.25Z" fill="#1e3163"/><path d="M379.59,465.31a7.34,7.34,0,1,1,7.45,7.21h-.11a7,7,0,0,1-7.33-6.69C379.59,465.66,379.59,465.48,379.59,465.31Zm12.07,0a4.75,4.75,0,1,0-4.73,5,4.62,4.62,0,0,0,4.82-4.4,3.62,3.62,0,0,0,0-.57Z" fill="#1e3163"/><path d="M405.36,458.13v2.48h-.58a4.2,4.2,0,0,0-4.46,3.91,4.69,4.69,0,0,0,0,.84v7h-2.55V458.29h2.44v2.36A5.39,5.39,0,0,1,405.36,458.13Z" fill="#1e3163"/><path d="M408.11,453.91a1.73,1.73,0,1,1,1.81,1.64h-.08a1.63,1.63,0,0,1-1.72-1.56A.22.22,0,0,1,408.11,453.91Zm.44,4.36h2.56v14.09h-2.56Z" fill="#1e3163"/><path d="M426.43,470.26v2.1H414.54v-1.64l8.32-10.35h-8.17v-2.1h11.44v1.66l-8.32,10.33Z" fill="#1e3163"/><path d="M442.28,466.16H430.85a4.8,4.8,0,0,0,5.11,4.12,5.27,5.27,0,0,0,4.07-1.7l1.4,1.66a7.67,7.67,0,0,1-13.12-4.94,6.91,6.91,0,0,1,6.61-7.17h.47a6.8,6.8,0,0,1,7,6.62c0,.21,0,.42,0,.63A5.12,5.12,0,0,1,442.28,466.16Zm-11.43-1.83h9.06a4.56,4.56,0,0,0-9.06,0Z" fill="#1e3163"/><path d="M459.17,452.62v19.82h-2.44V470.2a5.94,5.94,0,0,1-5,2.4,7.2,7.2,0,0,1,0-14.39,6,6,0,0,1,4.92,2.26V452.7Zm-2.53,12.68a4.74,4.74,0,1,0-4.72,5,4.64,4.64,0,0,0,4.73-4.55c0-.14,0-.28,0-.42Z" fill="#1e3163"/><path d="M580.19,570.05l-.83-.26L426.51,522.42,544,412.78ZM428.45,522l150.38,46.6L543.44,414.7Z" fill="#3db2ff"/><polygon points="416.63 511.35 568.48 558.13 532.89 400.86 416.63 511.35" fill="#fff"/><polygon points="428.5 507.96 560.01 547.96 529.16 414.08 428.5 507.96" fill="#3db2ff"/><path d="M494.57,487.54l8.65-31.31a5.5,5.5,0,0,1,7.39-3.62l2.76,1.13a5.51,5.51,0,0,1,3.06,7L505,491a5.49,5.49,0,0,1-7.09,3.2h0A5.5,5.5,0,0,1,494.57,487.54Z" fill="none" stroke="#fff" stroke-miterlimit="10"/><circle cx="494.93" cy="505.59" r="7.8" fill="none" stroke="#fff" stroke-miterlimit="10"/></svg>